<mxfile host="app.diagrams.net" modified="2022-09-10T11:40:19.830Z" agent="5.0 (Macintosh; Intel Mac OS X 10_15_7) AppleWebKit/537.36 (KHTML, like Gecko) Chrome/105.0.0.0 Safari/537.36" etag="hJ45AXkCKZ0gyQ-w4Qss" version="20.3.0" type="github">
  <diagram id="4w04wiPIxFfDjGHtAkdW" name="第 1 页">
    <mxGraphModel dx="1088" dy="798" grid="1" gridSize="10" guides="1" tooltips="1" connect="1" arrows="1" fold="1" page="1" pageScale="1" pageWidth="1169" pageHeight="1654" math="0" shadow="0">
      <root>
        <mxCell id="0" />
        <mxCell id="1" parent="0" />
        <mxCell id="Nl4qXHyheukNvlqafIY5-1" value="" style="rounded=0;whiteSpace=wrap;html=1;strokeWidth=2;sketch=1;shadow=1;fillColor=none;" vertex="1" parent="1">
          <mxGeometry x="160" y="100" width="640" height="110" as="geometry" />
        </mxCell>
        <mxCell id="Nl4qXHyheukNvlqafIY5-4" value="" style="group" vertex="1" connectable="0" parent="1">
          <mxGeometry x="202.73" y="111" width="83.46000000000001" height="88" as="geometry" />
        </mxCell>
        <mxCell id="Nl4qXHyheukNvlqafIY5-2" value="" style="shape=image;verticalLabelPosition=bottom;labelBackgroundColor=#ffffff;verticalAlign=top;aspect=fixed;imageAspect=0;image=data:image/svg+xml,PHN2ZyB4bWxuczpjYz0iaHR0cDovL2NyZWF0aXZlY29tbW9ucy5vcmcvbnMjIiB4bWxuczpkYz0iaHR0cDovL3B1cmwub3JnL2RjL2VsZW1lbnRzLzEuMS8iIHhtbG5zOmlua3NjYXBlPSJodHRwOi8vd3d3Lmlua3NjYXBlLm9yZy9uYW1lc3BhY2VzL2lua3NjYXBlIiB4bWxuczpyZGY9Imh0dHA6Ly93d3cudzMub3JnLzE5OTkvMDIvMjItcmRmLXN5bnRheC1ucyMiIHhtbG5zOnNvZGlwb2RpPSJodHRwOi8vc29kaXBvZGkuc291cmNlZm9yZ2UubmV0L0RURC9zb2RpcG9kaS0wLmR0ZCIgeG1sbnM6c3ZnPSJodHRwOi8vd3d3LnczLm9yZy8yMDAwL3N2ZyIgeG1sbnM9Imh0dHA6Ly93d3cudzMub3JnLzIwMDAvc3ZnIiB4bWxuczp4bGluaz0iaHR0cDovL3d3dy53My5vcmcvMTk5OS94bGluayIgdmVyc2lvbj0iMS4xIiBpZD0ic3ZnNDc3MTciIGlua3NjYXBlOnZlcnNpb249IjAuOTIuMyAoMjQwNTU0NiwgMjAxOC0wMy0xMSkiIHNvZGlwb2RpOmRvY25hbWU9ImdlbmVyaWNfZmlsZV8yLnN2ZyIgeD0iMHB4IiB5PSIwcHgiIHZpZXdCb3g9IjAgMCAzOS42NyA1MS42IiBzdHlsZT0iZW5hYmxlLWJhY2tncm91bmQ6bmV3IDAgMCAzOS42NyA1MS42OyIgeG1sOnNwYWNlPSJwcmVzZXJ2ZSI+JiN4YTs8c29kaXBvZGk6bmFtZWR2aWV3IGJvcmRlcmNvbG9yPSIjNjY2NjY2IiBib3JkZXJvcGFjaXR5PSIxIiBmaXQtbWFyZ2luLWJvdHRvbT0iMCIgZml0LW1hcmdpbi1sZWZ0PSIwIiBmaXQtbWFyZ2luLXJpZ2h0PSIwIiBmaXQtbWFyZ2luLXRvcD0iMCIgZ3JpZHRvbGVyYW5jZT0iMTAiIGd1aWRldG9sZXJhbmNlPSIxMCIgaWQ9Im5hbWVkdmlldzQ3NzE5IiBpbmtzY2FwZTpjdXJyZW50LWxheWVyPSJzdmc0NzcxNyIgaW5rc2NhcGU6Y3g9IjI2LjQ0MjgxNiIgaW5rc2NhcGU6Y3k9IjM0LjM5NzIwNSIgaW5rc2NhcGU6cGFnZW9wYWNpdHk9IjAiIGlua3NjYXBlOnBhZ2VzaGFkb3c9IjIiIGlua3NjYXBlOndpbmRvdy1oZWlnaHQ9IjEwMTciIGlua3NjYXBlOndpbmRvdy1tYXhpbWl6ZWQ9IjEiIGlua3NjYXBlOndpbmRvdy13aWR0aD0iMTkyMCIgaW5rc2NhcGU6d2luZG93LXg9Ii04IiBpbmtzY2FwZTp3aW5kb3cteT0iLTgiIGlua3NjYXBlOnpvb209IjEyLjA0NDcxOCIgb2JqZWN0dG9sZXJhbmNlPSIxMCIgcGFnZWNvbG9yPSIjZmZmZmZmIiBzaG93Z3JpZD0iZmFsc2UiPiYjeGE7CTwvc29kaXBvZGk6bmFtZWR2aWV3PiYjeGE7PGcgaWQ9Imc0NzcxNSIgdHJhbnNmb3JtPSJ0cmFuc2xhdGUoLTEuMTk1MzEsLTEuMTkzNDM3NykiPiYjeGE7CTx0aXRsZSBpZD0idGl0bGU0NzY5MCI+UGFnZS0xPC90aXRsZT4mI3hhOwk8ZyBpZD0iZ3JvdXA0NTMxLTEiIHRyYW5zZm9ybT0idHJhbnNsYXRlKDEuMTk1MzEsLTEuMTk1MzEpIj4mI3hhOwkJPHRpdGxlIGlkPSJ0aXRsZTQ3NjkyIj5HZW5lcmljIEZpbGUgIzI8L3RpdGxlPiYjeGE7CQk8ZyBpZD0ic2hhcGU0NTMyLTIiIHRyYW5zZm9ybT0idHJhbnNsYXRlKDAsLTE0LjUxMTMpIj4mI3hhOwkJCTx0aXRsZSBpZD0idGl0bGU0NzY5NCI+U2hlZXQuNDUzMjwvdGl0bGU+JiN4YTsJCQk8cGF0aCBpZD0icGF0aDQ3Njk2IiBpbmtzY2FwZTpjb25uZWN0b3ItY3VydmF0dXJlPSIwIiBzdHlsZT0iZmlsbDojRDhEOEQ4OyIgZD0iTTIzLjA3LDUzLjk5TDE5Ljc5LDE2LjlIMHYzMy44NkwyMy4wNyw1My45OXoiLz4mI3hhOwkJPC9nPiYjeGE7CQk8ZyBpZD0ic2hhcGU0NTMzLTQiIHRyYW5zZm9ybT0idHJhbnNsYXRlKDE5Ljc5MDIsLTE0LjUxMTMpIj4mI3hhOwkJCTx0aXRsZSBpZD0idGl0bGU0NzY5OSI+U2hlZXQuNDUzMzwvdGl0bGU+JiN4YTsJCQk8cGF0aCBpZD0icGF0aDQ3NzAxIiBpbmtzY2FwZTpjb25uZWN0b3ItY3VydmF0dXJlPSIwIiBzdHlsZT0iZmlsbDojRThFNkU2OyIgZD0iTTE5Ljg3LDUwLjc2VjI4LjE5bC04LjA2LTMuMjNMOC41OSwxNi45SDAgICAgIGwwLjA1LDM3LjA5TDE5Ljg3LDUwLjc2eiIvPiYjeGE7CQk8L2c+JiN4YTsJCTxnIGlkPSJzaGFwZTQ1MzQtNiIgdHJhbnNmb3JtPSJ0cmFuc2xhdGUoMjguMzc3NSwtNDAuMzA5MikiPiYjeGE7CQkJPHRpdGxlIGlkPSJ0aXRsZTQ3NzA0Ij5TaGVldC40NTM0PC90aXRsZT4mI3hhOwkJCTxwYXRoIGlkPSJwYXRoNDc3MDYiIGlua3NjYXBlOmNvbm5lY3Rvci1jdXJ2YXR1cmU9IjAiIHN0eWxlPSJmaWxsOiNBNUE1QTU7IiBkPSJNMCw1My45OVY0Mi43bDExLjI5LDExLjI5SDB6Ii8+JiN4YTsJCTwvZz4mI3hhOwkJPGcgaWQ9InNoYXBlNDUzNS04Ij4mI3hhOwkJCTx0aXRsZSBpZD0idGl0bGU0NzcwOSI+U2hlZXQuNDUzNTwvdGl0bGU+JiN4YTsJCQk8cmVjdCBpZD0icmVjdDQ3NzExIiB5PSIzNi4yNSIgc3R5bGU9ImZpbGw6IzYxMDM1MzsiIHdpZHRoPSIzOS42NiIgaGVpZ2h0PSIxNy43NCIvPiYjeGE7CQk8L2c+JiN4YTsJPC9nPiYjeGE7PC9nPiYjeGE7PC9zdmc+;shadow=1;sketch=1;strokeWidth=2;fillColor=none;" vertex="1" parent="Nl4qXHyheukNvlqafIY5-4">
          <mxGeometry x="7.27000000000001" width="66.92" height="87" as="geometry" />
        </mxCell>
        <mxCell id="Nl4qXHyheukNvlqafIY5-3" value="&lt;font color=&quot;#ffffff&quot;&gt;SST 1&lt;/font&gt;" style="text;strokeColor=none;fillColor=none;html=1;fontSize=24;fontStyle=1;verticalAlign=middle;align=center;shadow=1;sketch=1;strokeWidth=2;" vertex="1" parent="Nl4qXHyheukNvlqafIY5-4">
          <mxGeometry y="58" width="83.46" height="30" as="geometry" />
        </mxCell>
        <mxCell id="Nl4qXHyheukNvlqafIY5-5" value="" style="group" vertex="1" connectable="0" parent="1">
          <mxGeometry x="310" y="110" width="83.46000000000001" height="88" as="geometry" />
        </mxCell>
        <mxCell id="Nl4qXHyheukNvlqafIY5-6" value="" style="shape=image;verticalLabelPosition=bottom;labelBackgroundColor=#ffffff;verticalAlign=top;aspect=fixed;imageAspect=0;image=data:image/svg+xml,PHN2ZyB4bWxuczpjYz0iaHR0cDovL2NyZWF0aXZlY29tbW9ucy5vcmcvbnMjIiB4bWxuczpkYz0iaHR0cDovL3B1cmwub3JnL2RjL2VsZW1lbnRzLzEuMS8iIHhtbG5zOmlua3NjYXBlPSJodHRwOi8vd3d3Lmlua3NjYXBlLm9yZy9uYW1lc3BhY2VzL2lua3NjYXBlIiB4bWxuczpyZGY9Imh0dHA6Ly93d3cudzMub3JnLzE5OTkvMDIvMjItcmRmLXN5bnRheC1ucyMiIHhtbG5zOnNvZGlwb2RpPSJodHRwOi8vc29kaXBvZGkuc291cmNlZm9yZ2UubmV0L0RURC9zb2RpcG9kaS0wLmR0ZCIgeG1sbnM6c3ZnPSJodHRwOi8vd3d3LnczLm9yZy8yMDAwL3N2ZyIgeG1sbnM9Imh0dHA6Ly93d3cudzMub3JnLzIwMDAvc3ZnIiB4bWxuczp4bGluaz0iaHR0cDovL3d3dy53My5vcmcvMTk5OS94bGluayIgdmVyc2lvbj0iMS4xIiBpZD0ic3ZnNDc3MTciIGlua3NjYXBlOnZlcnNpb249IjAuOTIuMyAoMjQwNTU0NiwgMjAxOC0wMy0xMSkiIHNvZGlwb2RpOmRvY25hbWU9ImdlbmVyaWNfZmlsZV8yLnN2ZyIgeD0iMHB4IiB5PSIwcHgiIHZpZXdCb3g9IjAgMCAzOS42NyA1MS42IiBzdHlsZT0iZW5hYmxlLWJhY2tncm91bmQ6bmV3IDAgMCAzOS42NyA1MS42OyIgeG1sOnNwYWNlPSJwcmVzZXJ2ZSI+JiN4YTs8c29kaXBvZGk6bmFtZWR2aWV3IGJvcmRlcmNvbG9yPSIjNjY2NjY2IiBib3JkZXJvcGFjaXR5PSIxIiBmaXQtbWFyZ2luLWJvdHRvbT0iMCIgZml0LW1hcmdpbi1sZWZ0PSIwIiBmaXQtbWFyZ2luLXJpZ2h0PSIwIiBmaXQtbWFyZ2luLXRvcD0iMCIgZ3JpZHRvbGVyYW5jZT0iMTAiIGd1aWRldG9sZXJhbmNlPSIxMCIgaWQ9Im5hbWVkdmlldzQ3NzE5IiBpbmtzY2FwZTpjdXJyZW50LWxheWVyPSJzdmc0NzcxNyIgaW5rc2NhcGU6Y3g9IjI2LjQ0MjgxNiIgaW5rc2NhcGU6Y3k9IjM0LjM5NzIwNSIgaW5rc2NhcGU6cGFnZW9wYWNpdHk9IjAiIGlua3NjYXBlOnBhZ2VzaGFkb3c9IjIiIGlua3NjYXBlOndpbmRvdy1oZWlnaHQ9IjEwMTciIGlua3NjYXBlOndpbmRvdy1tYXhpbWl6ZWQ9IjEiIGlua3NjYXBlOndpbmRvdy13aWR0aD0iMTkyMCIgaW5rc2NhcGU6d2luZG93LXg9Ii04IiBpbmtzY2FwZTp3aW5kb3cteT0iLTgiIGlua3NjYXBlOnpvb209IjEyLjA0NDcxOCIgb2JqZWN0dG9sZXJhbmNlPSIxMCIgcGFnZWNvbG9yPSIjZmZmZmZmIiBzaG93Z3JpZD0iZmFsc2UiPiYjeGE7CTwvc29kaXBvZGk6bmFtZWR2aWV3PiYjeGE7PGcgaWQ9Imc0NzcxNSIgdHJhbnNmb3JtPSJ0cmFuc2xhdGUoLTEuMTk1MzEsLTEuMTkzNDM3NykiPiYjeGE7CTx0aXRsZSBpZD0idGl0bGU0NzY5MCI+UGFnZS0xPC90aXRsZT4mI3hhOwk8ZyBpZD0iZ3JvdXA0NTMxLTEiIHRyYW5zZm9ybT0idHJhbnNsYXRlKDEuMTk1MzEsLTEuMTk1MzEpIj4mI3hhOwkJPHRpdGxlIGlkPSJ0aXRsZTQ3NjkyIj5HZW5lcmljIEZpbGUgIzI8L3RpdGxlPiYjeGE7CQk8ZyBpZD0ic2hhcGU0NTMyLTIiIHRyYW5zZm9ybT0idHJhbnNsYXRlKDAsLTE0LjUxMTMpIj4mI3hhOwkJCTx0aXRsZSBpZD0idGl0bGU0NzY5NCI+U2hlZXQuNDUzMjwvdGl0bGU+JiN4YTsJCQk8cGF0aCBpZD0icGF0aDQ3Njk2IiBpbmtzY2FwZTpjb25uZWN0b3ItY3VydmF0dXJlPSIwIiBzdHlsZT0iZmlsbDojRDhEOEQ4OyIgZD0iTTIzLjA3LDUzLjk5TDE5Ljc5LDE2LjlIMHYzMy44NkwyMy4wNyw1My45OXoiLz4mI3hhOwkJPC9nPiYjeGE7CQk8ZyBpZD0ic2hhcGU0NTMzLTQiIHRyYW5zZm9ybT0idHJhbnNsYXRlKDE5Ljc5MDIsLTE0LjUxMTMpIj4mI3hhOwkJCTx0aXRsZSBpZD0idGl0bGU0NzY5OSI+U2hlZXQuNDUzMzwvdGl0bGU+JiN4YTsJCQk8cGF0aCBpZD0icGF0aDQ3NzAxIiBpbmtzY2FwZTpjb25uZWN0b3ItY3VydmF0dXJlPSIwIiBzdHlsZT0iZmlsbDojRThFNkU2OyIgZD0iTTE5Ljg3LDUwLjc2VjI4LjE5bC04LjA2LTMuMjNMOC41OSwxNi45SDAgICAgIGwwLjA1LDM3LjA5TDE5Ljg3LDUwLjc2eiIvPiYjeGE7CQk8L2c+JiN4YTsJCTxnIGlkPSJzaGFwZTQ1MzQtNiIgdHJhbnNmb3JtPSJ0cmFuc2xhdGUoMjguMzc3NSwtNDAuMzA5MikiPiYjeGE7CQkJPHRpdGxlIGlkPSJ0aXRsZTQ3NzA0Ij5TaGVldC40NTM0PC90aXRsZT4mI3hhOwkJCTxwYXRoIGlkPSJwYXRoNDc3MDYiIGlua3NjYXBlOmNvbm5lY3Rvci1jdXJ2YXR1cmU9IjAiIHN0eWxlPSJmaWxsOiNBNUE1QTU7IiBkPSJNMCw1My45OVY0Mi43bDExLjI5LDExLjI5SDB6Ii8+JiN4YTsJCTwvZz4mI3hhOwkJPGcgaWQ9InNoYXBlNDUzNS04Ij4mI3hhOwkJCTx0aXRsZSBpZD0idGl0bGU0NzcwOSI+U2hlZXQuNDUzNTwvdGl0bGU+JiN4YTsJCQk8cmVjdCBpZD0icmVjdDQ3NzExIiB5PSIzNi4yNSIgc3R5bGU9ImZpbGw6IzYxMDM1MzsiIHdpZHRoPSIzOS42NiIgaGVpZ2h0PSIxNy43NCIvPiYjeGE7CQk8L2c+JiN4YTsJPC9nPiYjeGE7PC9nPiYjeGE7PC9zdmc+;shadow=1;sketch=1;strokeWidth=2;fillColor=none;" vertex="1" parent="Nl4qXHyheukNvlqafIY5-5">
          <mxGeometry x="7.27000000000001" width="66.92" height="87" as="geometry" />
        </mxCell>
        <mxCell id="Nl4qXHyheukNvlqafIY5-7" value="&lt;font color=&quot;#ffffff&quot;&gt;SST 2&lt;/font&gt;" style="text;strokeColor=none;fillColor=none;html=1;fontSize=24;fontStyle=1;verticalAlign=middle;align=center;shadow=1;sketch=1;strokeWidth=2;" vertex="1" parent="Nl4qXHyheukNvlqafIY5-5">
          <mxGeometry y="58" width="83.46" height="30" as="geometry" />
        </mxCell>
        <mxCell id="Nl4qXHyheukNvlqafIY5-8" value="" style="group" vertex="1" connectable="0" parent="1">
          <mxGeometry x="420" y="110" width="83.46000000000001" height="88" as="geometry" />
        </mxCell>
        <mxCell id="Nl4qXHyheukNvlqafIY5-9" value="" style="shape=image;verticalLabelPosition=bottom;labelBackgroundColor=#ffffff;verticalAlign=top;aspect=fixed;imageAspect=0;image=data:image/svg+xml,PHN2ZyB4bWxuczpjYz0iaHR0cDovL2NyZWF0aXZlY29tbW9ucy5vcmcvbnMjIiB4bWxuczpkYz0iaHR0cDovL3B1cmwub3JnL2RjL2VsZW1lbnRzLzEuMS8iIHhtbG5zOmlua3NjYXBlPSJodHRwOi8vd3d3Lmlua3NjYXBlLm9yZy9uYW1lc3BhY2VzL2lua3NjYXBlIiB4bWxuczpyZGY9Imh0dHA6Ly93d3cudzMub3JnLzE5OTkvMDIvMjItcmRmLXN5bnRheC1ucyMiIHhtbG5zOnNvZGlwb2RpPSJodHRwOi8vc29kaXBvZGkuc291cmNlZm9yZ2UubmV0L0RURC9zb2RpcG9kaS0wLmR0ZCIgeG1sbnM6c3ZnPSJodHRwOi8vd3d3LnczLm9yZy8yMDAwL3N2ZyIgeG1sbnM9Imh0dHA6Ly93d3cudzMub3JnLzIwMDAvc3ZnIiB4bWxuczp4bGluaz0iaHR0cDovL3d3dy53My5vcmcvMTk5OS94bGluayIgdmVyc2lvbj0iMS4xIiBpZD0ic3ZnNDc3MTciIGlua3NjYXBlOnZlcnNpb249IjAuOTIuMyAoMjQwNTU0NiwgMjAxOC0wMy0xMSkiIHNvZGlwb2RpOmRvY25hbWU9ImdlbmVyaWNfZmlsZV8yLnN2ZyIgeD0iMHB4IiB5PSIwcHgiIHZpZXdCb3g9IjAgMCAzOS42NyA1MS42IiBzdHlsZT0iZW5hYmxlLWJhY2tncm91bmQ6bmV3IDAgMCAzOS42NyA1MS42OyIgeG1sOnNwYWNlPSJwcmVzZXJ2ZSI+JiN4YTs8c29kaXBvZGk6bmFtZWR2aWV3IGJvcmRlcmNvbG9yPSIjNjY2NjY2IiBib3JkZXJvcGFjaXR5PSIxIiBmaXQtbWFyZ2luLWJvdHRvbT0iMCIgZml0LW1hcmdpbi1sZWZ0PSIwIiBmaXQtbWFyZ2luLXJpZ2h0PSIwIiBmaXQtbWFyZ2luLXRvcD0iMCIgZ3JpZHRvbGVyYW5jZT0iMTAiIGd1aWRldG9sZXJhbmNlPSIxMCIgaWQ9Im5hbWVkdmlldzQ3NzE5IiBpbmtzY2FwZTpjdXJyZW50LWxheWVyPSJzdmc0NzcxNyIgaW5rc2NhcGU6Y3g9IjI2LjQ0MjgxNiIgaW5rc2NhcGU6Y3k9IjM0LjM5NzIwNSIgaW5rc2NhcGU6cGFnZW9wYWNpdHk9IjAiIGlua3NjYXBlOnBhZ2VzaGFkb3c9IjIiIGlua3NjYXBlOndpbmRvdy1oZWlnaHQ9IjEwMTciIGlua3NjYXBlOndpbmRvdy1tYXhpbWl6ZWQ9IjEiIGlua3NjYXBlOndpbmRvdy13aWR0aD0iMTkyMCIgaW5rc2NhcGU6d2luZG93LXg9Ii04IiBpbmtzY2FwZTp3aW5kb3cteT0iLTgiIGlua3NjYXBlOnpvb209IjEyLjA0NDcxOCIgb2JqZWN0dG9sZXJhbmNlPSIxMCIgcGFnZWNvbG9yPSIjZmZmZmZmIiBzaG93Z3JpZD0iZmFsc2UiPiYjeGE7CTwvc29kaXBvZGk6bmFtZWR2aWV3PiYjeGE7PGcgaWQ9Imc0NzcxNSIgdHJhbnNmb3JtPSJ0cmFuc2xhdGUoLTEuMTk1MzEsLTEuMTkzNDM3NykiPiYjeGE7CTx0aXRsZSBpZD0idGl0bGU0NzY5MCI+UGFnZS0xPC90aXRsZT4mI3hhOwk8ZyBpZD0iZ3JvdXA0NTMxLTEiIHRyYW5zZm9ybT0idHJhbnNsYXRlKDEuMTk1MzEsLTEuMTk1MzEpIj4mI3hhOwkJPHRpdGxlIGlkPSJ0aXRsZTQ3NjkyIj5HZW5lcmljIEZpbGUgIzI8L3RpdGxlPiYjeGE7CQk8ZyBpZD0ic2hhcGU0NTMyLTIiIHRyYW5zZm9ybT0idHJhbnNsYXRlKDAsLTE0LjUxMTMpIj4mI3hhOwkJCTx0aXRsZSBpZD0idGl0bGU0NzY5NCI+U2hlZXQuNDUzMjwvdGl0bGU+JiN4YTsJCQk8cGF0aCBpZD0icGF0aDQ3Njk2IiBpbmtzY2FwZTpjb25uZWN0b3ItY3VydmF0dXJlPSIwIiBzdHlsZT0iZmlsbDojRDhEOEQ4OyIgZD0iTTIzLjA3LDUzLjk5TDE5Ljc5LDE2LjlIMHYzMy44NkwyMy4wNyw1My45OXoiLz4mI3hhOwkJPC9nPiYjeGE7CQk8ZyBpZD0ic2hhcGU0NTMzLTQiIHRyYW5zZm9ybT0idHJhbnNsYXRlKDE5Ljc5MDIsLTE0LjUxMTMpIj4mI3hhOwkJCTx0aXRsZSBpZD0idGl0bGU0NzY5OSI+U2hlZXQuNDUzMzwvdGl0bGU+JiN4YTsJCQk8cGF0aCBpZD0icGF0aDQ3NzAxIiBpbmtzY2FwZTpjb25uZWN0b3ItY3VydmF0dXJlPSIwIiBzdHlsZT0iZmlsbDojRThFNkU2OyIgZD0iTTE5Ljg3LDUwLjc2VjI4LjE5bC04LjA2LTMuMjNMOC41OSwxNi45SDAgICAgIGwwLjA1LDM3LjA5TDE5Ljg3LDUwLjc2eiIvPiYjeGE7CQk8L2c+JiN4YTsJCTxnIGlkPSJzaGFwZTQ1MzQtNiIgdHJhbnNmb3JtPSJ0cmFuc2xhdGUoMjguMzc3NSwtNDAuMzA5MikiPiYjeGE7CQkJPHRpdGxlIGlkPSJ0aXRsZTQ3NzA0Ij5TaGVldC40NTM0PC90aXRsZT4mI3hhOwkJCTxwYXRoIGlkPSJwYXRoNDc3MDYiIGlua3NjYXBlOmNvbm5lY3Rvci1jdXJ2YXR1cmU9IjAiIHN0eWxlPSJmaWxsOiNBNUE1QTU7IiBkPSJNMCw1My45OVY0Mi43bDExLjI5LDExLjI5SDB6Ii8+JiN4YTsJCTwvZz4mI3hhOwkJPGcgaWQ9InNoYXBlNDUzNS04Ij4mI3hhOwkJCTx0aXRsZSBpZD0idGl0bGU0NzcwOSI+U2hlZXQuNDUzNTwvdGl0bGU+JiN4YTsJCQk8cmVjdCBpZD0icmVjdDQ3NzExIiB5PSIzNi4yNSIgc3R5bGU9ImZpbGw6IzYxMDM1MzsiIHdpZHRoPSIzOS42NiIgaGVpZ2h0PSIxNy43NCIvPiYjeGE7CQk8L2c+JiN4YTsJPC9nPiYjeGE7PC9nPiYjeGE7PC9zdmc+;shadow=1;sketch=1;strokeWidth=2;fillColor=none;" vertex="1" parent="Nl4qXHyheukNvlqafIY5-8">
          <mxGeometry x="7.27000000000001" width="66.92" height="87" as="geometry" />
        </mxCell>
        <mxCell id="Nl4qXHyheukNvlqafIY5-10" value="&lt;font color=&quot;#ffffff&quot;&gt;SST 3&lt;/font&gt;" style="text;strokeColor=none;fillColor=none;html=1;fontSize=24;fontStyle=1;verticalAlign=middle;align=center;shadow=1;sketch=1;strokeWidth=2;" vertex="1" parent="Nl4qXHyheukNvlqafIY5-8">
          <mxGeometry y="58" width="83.46" height="30" as="geometry" />
        </mxCell>
        <mxCell id="Nl4qXHyheukNvlqafIY5-11" value="" style="group" vertex="1" connectable="0" parent="1">
          <mxGeometry x="530" y="110" width="83.46000000000001" height="88" as="geometry" />
        </mxCell>
        <mxCell id="Nl4qXHyheukNvlqafIY5-12" value="" style="shape=image;verticalLabelPosition=bottom;labelBackgroundColor=#ffffff;verticalAlign=top;aspect=fixed;imageAspect=0;image=data:image/svg+xml,PHN2ZyB4bWxuczpjYz0iaHR0cDovL2NyZWF0aXZlY29tbW9ucy5vcmcvbnMjIiB4bWxuczpkYz0iaHR0cDovL3B1cmwub3JnL2RjL2VsZW1lbnRzLzEuMS8iIHhtbG5zOmlua3NjYXBlPSJodHRwOi8vd3d3Lmlua3NjYXBlLm9yZy9uYW1lc3BhY2VzL2lua3NjYXBlIiB4bWxuczpyZGY9Imh0dHA6Ly93d3cudzMub3JnLzE5OTkvMDIvMjItcmRmLXN5bnRheC1ucyMiIHhtbG5zOnNvZGlwb2RpPSJodHRwOi8vc29kaXBvZGkuc291cmNlZm9yZ2UubmV0L0RURC9zb2RpcG9kaS0wLmR0ZCIgeG1sbnM6c3ZnPSJodHRwOi8vd3d3LnczLm9yZy8yMDAwL3N2ZyIgeG1sbnM9Imh0dHA6Ly93d3cudzMub3JnLzIwMDAvc3ZnIiB4bWxuczp4bGluaz0iaHR0cDovL3d3dy53My5vcmcvMTk5OS94bGluayIgdmVyc2lvbj0iMS4xIiBpZD0ic3ZnNDc3MTciIGlua3NjYXBlOnZlcnNpb249IjAuOTIuMyAoMjQwNTU0NiwgMjAxOC0wMy0xMSkiIHNvZGlwb2RpOmRvY25hbWU9ImdlbmVyaWNfZmlsZV8yLnN2ZyIgeD0iMHB4IiB5PSIwcHgiIHZpZXdCb3g9IjAgMCAzOS42NyA1MS42IiBzdHlsZT0iZW5hYmxlLWJhY2tncm91bmQ6bmV3IDAgMCAzOS42NyA1MS42OyIgeG1sOnNwYWNlPSJwcmVzZXJ2ZSI+JiN4YTs8c29kaXBvZGk6bmFtZWR2aWV3IGJvcmRlcmNvbG9yPSIjNjY2NjY2IiBib3JkZXJvcGFjaXR5PSIxIiBmaXQtbWFyZ2luLWJvdHRvbT0iMCIgZml0LW1hcmdpbi1sZWZ0PSIwIiBmaXQtbWFyZ2luLXJpZ2h0PSIwIiBmaXQtbWFyZ2luLXRvcD0iMCIgZ3JpZHRvbGVyYW5jZT0iMTAiIGd1aWRldG9sZXJhbmNlPSIxMCIgaWQ9Im5hbWVkdmlldzQ3NzE5IiBpbmtzY2FwZTpjdXJyZW50LWxheWVyPSJzdmc0NzcxNyIgaW5rc2NhcGU6Y3g9IjI2LjQ0MjgxNiIgaW5rc2NhcGU6Y3k9IjM0LjM5NzIwNSIgaW5rc2NhcGU6cGFnZW9wYWNpdHk9IjAiIGlua3NjYXBlOnBhZ2VzaGFkb3c9IjIiIGlua3NjYXBlOndpbmRvdy1oZWlnaHQ9IjEwMTciIGlua3NjYXBlOndpbmRvdy1tYXhpbWl6ZWQ9IjEiIGlua3NjYXBlOndpbmRvdy13aWR0aD0iMTkyMCIgaW5rc2NhcGU6d2luZG93LXg9Ii04IiBpbmtzY2FwZTp3aW5kb3cteT0iLTgiIGlua3NjYXBlOnpvb209IjEyLjA0NDcxOCIgb2JqZWN0dG9sZXJhbmNlPSIxMCIgcGFnZWNvbG9yPSIjZmZmZmZmIiBzaG93Z3JpZD0iZmFsc2UiPiYjeGE7CTwvc29kaXBvZGk6bmFtZWR2aWV3PiYjeGE7PGcgaWQ9Imc0NzcxNSIgdHJhbnNmb3JtPSJ0cmFuc2xhdGUoLTEuMTk1MzEsLTEuMTkzNDM3NykiPiYjeGE7CTx0aXRsZSBpZD0idGl0bGU0NzY5MCI+UGFnZS0xPC90aXRsZT4mI3hhOwk8ZyBpZD0iZ3JvdXA0NTMxLTEiIHRyYW5zZm9ybT0idHJhbnNsYXRlKDEuMTk1MzEsLTEuMTk1MzEpIj4mI3hhOwkJPHRpdGxlIGlkPSJ0aXRsZTQ3NjkyIj5HZW5lcmljIEZpbGUgIzI8L3RpdGxlPiYjeGE7CQk8ZyBpZD0ic2hhcGU0NTMyLTIiIHRyYW5zZm9ybT0idHJhbnNsYXRlKDAsLTE0LjUxMTMpIj4mI3hhOwkJCTx0aXRsZSBpZD0idGl0bGU0NzY5NCI+U2hlZXQuNDUzMjwvdGl0bGU+JiN4YTsJCQk8cGF0aCBpZD0icGF0aDQ3Njk2IiBpbmtzY2FwZTpjb25uZWN0b3ItY3VydmF0dXJlPSIwIiBzdHlsZT0iZmlsbDojRDhEOEQ4OyIgZD0iTTIzLjA3LDUzLjk5TDE5Ljc5LDE2LjlIMHYzMy44NkwyMy4wNyw1My45OXoiLz4mI3hhOwkJPC9nPiYjeGE7CQk8ZyBpZD0ic2hhcGU0NTMzLTQiIHRyYW5zZm9ybT0idHJhbnNsYXRlKDE5Ljc5MDIsLTE0LjUxMTMpIj4mI3hhOwkJCTx0aXRsZSBpZD0idGl0bGU0NzY5OSI+U2hlZXQuNDUzMzwvdGl0bGU+JiN4YTsJCQk8cGF0aCBpZD0icGF0aDQ3NzAxIiBpbmtzY2FwZTpjb25uZWN0b3ItY3VydmF0dXJlPSIwIiBzdHlsZT0iZmlsbDojRThFNkU2OyIgZD0iTTE5Ljg3LDUwLjc2VjI4LjE5bC04LjA2LTMuMjNMOC41OSwxNi45SDAgICAgIGwwLjA1LDM3LjA5TDE5Ljg3LDUwLjc2eiIvPiYjeGE7CQk8L2c+JiN4YTsJCTxnIGlkPSJzaGFwZTQ1MzQtNiIgdHJhbnNmb3JtPSJ0cmFuc2xhdGUoMjguMzc3NSwtNDAuMzA5MikiPiYjeGE7CQkJPHRpdGxlIGlkPSJ0aXRsZTQ3NzA0Ij5TaGVldC40NTM0PC90aXRsZT4mI3hhOwkJCTxwYXRoIGlkPSJwYXRoNDc3MDYiIGlua3NjYXBlOmNvbm5lY3Rvci1jdXJ2YXR1cmU9IjAiIHN0eWxlPSJmaWxsOiNBNUE1QTU7IiBkPSJNMCw1My45OVY0Mi43bDExLjI5LDExLjI5SDB6Ii8+JiN4YTsJCTwvZz4mI3hhOwkJPGcgaWQ9InNoYXBlNDUzNS04Ij4mI3hhOwkJCTx0aXRsZSBpZD0idGl0bGU0NzcwOSI+U2hlZXQuNDUzNTwvdGl0bGU+JiN4YTsJCQk8cmVjdCBpZD0icmVjdDQ3NzExIiB5PSIzNi4yNSIgc3R5bGU9ImZpbGw6IzYxMDM1MzsiIHdpZHRoPSIzOS42NiIgaGVpZ2h0PSIxNy43NCIvPiYjeGE7CQk8L2c+JiN4YTsJPC9nPiYjeGE7PC9nPiYjeGE7PC9zdmc+;shadow=1;sketch=1;strokeWidth=2;fillColor=none;" vertex="1" parent="Nl4qXHyheukNvlqafIY5-11">
          <mxGeometry x="7.27000000000001" width="66.92" height="87" as="geometry" />
        </mxCell>
        <mxCell id="Nl4qXHyheukNvlqafIY5-13" value="&lt;font color=&quot;#ffffff&quot;&gt;SST 4&lt;/font&gt;" style="text;strokeColor=none;fillColor=none;html=1;fontSize=24;fontStyle=1;verticalAlign=middle;align=center;shadow=1;sketch=1;strokeWidth=2;" vertex="1" parent="Nl4qXHyheukNvlqafIY5-11">
          <mxGeometry y="58" width="83.46" height="30" as="geometry" />
        </mxCell>
        <mxCell id="Nl4qXHyheukNvlqafIY5-14" value="&lt;font style=&quot;font-size: 28px;&quot; color=&quot;#000000&quot;&gt;Level 0&lt;/font&gt;" style="text;strokeColor=none;fillColor=none;html=1;fontSize=24;fontStyle=1;verticalAlign=middle;align=center;shadow=1;sketch=1;strokeWidth=2;fontColor=#FFFFFF;" vertex="1" parent="1">
          <mxGeometry x="660" y="134" width="100" height="40" as="geometry" />
        </mxCell>
        <mxCell id="Nl4qXHyheukNvlqafIY5-15" value="" style="shape=curlyBracket;whiteSpace=wrap;html=1;rounded=1;shadow=1;sketch=1;strokeWidth=2;fontSize=28;fontColor=#000000;fillColor=none;rotation=-90;" vertex="1" parent="1">
          <mxGeometry x="470" y="-80" width="20" height="640" as="geometry" />
        </mxCell>
        <mxCell id="Nl4qXHyheukNvlqafIY5-22" style="rounded=0;orthogonalLoop=1;jettySize=auto;html=1;entryX=0.5;entryY=0;entryDx=0;entryDy=0;fontSize=28;fontColor=#000000;strokeWidth=3;" edge="1" parent="1" source="Nl4qXHyheukNvlqafIY5-17" target="Nl4qXHyheukNvlqafIY5-18">
          <mxGeometry relative="1" as="geometry" />
        </mxCell>
        <mxCell id="Nl4qXHyheukNvlqafIY5-23" style="edgeStyle=none;rounded=0;orthogonalLoop=1;jettySize=auto;html=1;entryX=0.5;entryY=0;entryDx=0;entryDy=0;strokeWidth=3;fontSize=28;fontColor=#000000;" edge="1" parent="1" source="Nl4qXHyheukNvlqafIY5-17" target="Nl4qXHyheukNvlqafIY5-19">
          <mxGeometry relative="1" as="geometry" />
        </mxCell>
        <mxCell id="Nl4qXHyheukNvlqafIY5-17" value="?" style="ellipse;whiteSpace=wrap;html=1;aspect=fixed;shadow=1;sketch=1;strokeWidth=2;fontSize=28;fontColor=#000000;fillColor=default;" vertex="1" parent="1">
          <mxGeometry x="450" y="290" width="60" height="60" as="geometry" />
        </mxCell>
        <mxCell id="Nl4qXHyheukNvlqafIY5-24" style="edgeStyle=none;rounded=0;orthogonalLoop=1;jettySize=auto;html=1;entryX=0.5;entryY=0;entryDx=0;entryDy=0;strokeWidth=3;fontSize=28;fontColor=#000000;" edge="1" parent="1" source="Nl4qXHyheukNvlqafIY5-18" target="Nl4qXHyheukNvlqafIY5-20">
          <mxGeometry relative="1" as="geometry" />
        </mxCell>
        <mxCell id="Nl4qXHyheukNvlqafIY5-25" style="edgeStyle=none;rounded=0;orthogonalLoop=1;jettySize=auto;html=1;entryX=0.5;entryY=0;entryDx=0;entryDy=0;strokeWidth=3;fontSize=28;fontColor=#000000;" edge="1" parent="1" source="Nl4qXHyheukNvlqafIY5-18" target="Nl4qXHyheukNvlqafIY5-21">
          <mxGeometry relative="1" as="geometry" />
        </mxCell>
        <mxCell id="Nl4qXHyheukNvlqafIY5-18" value="?" style="ellipse;whiteSpace=wrap;html=1;aspect=fixed;shadow=1;sketch=1;strokeWidth=2;fontSize=28;fontColor=#000000;fillColor=default;" vertex="1" parent="1">
          <mxGeometry x="376" y="394" width="60" height="60" as="geometry" />
        </mxCell>
        <mxCell id="Nl4qXHyheukNvlqafIY5-19" value="?" style="ellipse;whiteSpace=wrap;html=1;aspect=fixed;shadow=1;sketch=1;strokeWidth=2;fontSize=28;fontColor=#000000;fillColor=default;" vertex="1" parent="1">
          <mxGeometry x="530" y="394" width="60" height="60" as="geometry" />
        </mxCell>
        <mxCell id="Nl4qXHyheukNvlqafIY5-20" value="?" style="ellipse;whiteSpace=wrap;html=1;aspect=fixed;shadow=1;sketch=1;strokeWidth=2;fontSize=28;fontColor=#000000;fillColor=default;" vertex="1" parent="1">
          <mxGeometry x="300" y="510" width="60" height="60" as="geometry" />
        </mxCell>
        <mxCell id="Nl4qXHyheukNvlqafIY5-21" value="?" style="ellipse;whiteSpace=wrap;html=1;aspect=fixed;shadow=1;sketch=1;strokeWidth=2;fontSize=28;fontColor=#000000;fillColor=default;" vertex="1" parent="1">
          <mxGeometry x="450" y="510" width="60" height="60" as="geometry" />
        </mxCell>
        <mxCell id="Nl4qXHyheukNvlqafIY5-26" value="" style="rounded=0;whiteSpace=wrap;html=1;strokeWidth=2;sketch=1;shadow=1;fillColor=none;" vertex="1" parent="1">
          <mxGeometry x="160" y="610" width="640" height="110" as="geometry" />
        </mxCell>
        <mxCell id="Nl4qXHyheukNvlqafIY5-27" value="" style="group" vertex="1" connectable="0" parent="1">
          <mxGeometry x="202.73" y="621" width="83.46000000000001" height="88" as="geometry" />
        </mxCell>
        <mxCell id="Nl4qXHyheukNvlqafIY5-28" value="" style="shape=image;verticalLabelPosition=bottom;labelBackgroundColor=#ffffff;verticalAlign=top;aspect=fixed;imageAspect=0;image=data:image/svg+xml,PHN2ZyB4bWxuczpjYz0iaHR0cDovL2NyZWF0aXZlY29tbW9ucy5vcmcvbnMjIiB4bWxuczpkYz0iaHR0cDovL3B1cmwub3JnL2RjL2VsZW1lbnRzLzEuMS8iIHhtbG5zOmlua3NjYXBlPSJodHRwOi8vd3d3Lmlua3NjYXBlLm9yZy9uYW1lc3BhY2VzL2lua3NjYXBlIiB4bWxuczpyZGY9Imh0dHA6Ly93d3cudzMub3JnLzE5OTkvMDIvMjItcmRmLXN5bnRheC1ucyMiIHhtbG5zOnNvZGlwb2RpPSJodHRwOi8vc29kaXBvZGkuc291cmNlZm9yZ2UubmV0L0RURC9zb2RpcG9kaS0wLmR0ZCIgeG1sbnM6c3ZnPSJodHRwOi8vd3d3LnczLm9yZy8yMDAwL3N2ZyIgeG1sbnM9Imh0dHA6Ly93d3cudzMub3JnLzIwMDAvc3ZnIiB4bWxuczp4bGluaz0iaHR0cDovL3d3dy53My5vcmcvMTk5OS94bGluayIgdmVyc2lvbj0iMS4xIiBpZD0ic3ZnNDc3MTciIGlua3NjYXBlOnZlcnNpb249IjAuOTIuMyAoMjQwNTU0NiwgMjAxOC0wMy0xMSkiIHNvZGlwb2RpOmRvY25hbWU9ImdlbmVyaWNfZmlsZV8yLnN2ZyIgeD0iMHB4IiB5PSIwcHgiIHZpZXdCb3g9IjAgMCAzOS42NyA1MS42IiBzdHlsZT0iZW5hYmxlLWJhY2tncm91bmQ6bmV3IDAgMCAzOS42NyA1MS42OyIgeG1sOnNwYWNlPSJwcmVzZXJ2ZSI+JiN4YTs8c29kaXBvZGk6bmFtZWR2aWV3IGJvcmRlcmNvbG9yPSIjNjY2NjY2IiBib3JkZXJvcGFjaXR5PSIxIiBmaXQtbWFyZ2luLWJvdHRvbT0iMCIgZml0LW1hcmdpbi1sZWZ0PSIwIiBmaXQtbWFyZ2luLXJpZ2h0PSIwIiBmaXQtbWFyZ2luLXRvcD0iMCIgZ3JpZHRvbGVyYW5jZT0iMTAiIGd1aWRldG9sZXJhbmNlPSIxMCIgaWQ9Im5hbWVkdmlldzQ3NzE5IiBpbmtzY2FwZTpjdXJyZW50LWxheWVyPSJzdmc0NzcxNyIgaW5rc2NhcGU6Y3g9IjI2LjQ0MjgxNiIgaW5rc2NhcGU6Y3k9IjM0LjM5NzIwNSIgaW5rc2NhcGU6cGFnZW9wYWNpdHk9IjAiIGlua3NjYXBlOnBhZ2VzaGFkb3c9IjIiIGlua3NjYXBlOndpbmRvdy1oZWlnaHQ9IjEwMTciIGlua3NjYXBlOndpbmRvdy1tYXhpbWl6ZWQ9IjEiIGlua3NjYXBlOndpbmRvdy13aWR0aD0iMTkyMCIgaW5rc2NhcGU6d2luZG93LXg9Ii04IiBpbmtzY2FwZTp3aW5kb3cteT0iLTgiIGlua3NjYXBlOnpvb209IjEyLjA0NDcxOCIgb2JqZWN0dG9sZXJhbmNlPSIxMCIgcGFnZWNvbG9yPSIjZmZmZmZmIiBzaG93Z3JpZD0iZmFsc2UiPiYjeGE7CTwvc29kaXBvZGk6bmFtZWR2aWV3PiYjeGE7PGcgaWQ9Imc0NzcxNSIgdHJhbnNmb3JtPSJ0cmFuc2xhdGUoLTEuMTk1MzEsLTEuMTkzNDM3NykiPiYjeGE7CTx0aXRsZSBpZD0idGl0bGU0NzY5MCI+UGFnZS0xPC90aXRsZT4mI3hhOwk8ZyBpZD0iZ3JvdXA0NTMxLTEiIHRyYW5zZm9ybT0idHJhbnNsYXRlKDEuMTk1MzEsLTEuMTk1MzEpIj4mI3hhOwkJPHRpdGxlIGlkPSJ0aXRsZTQ3NjkyIj5HZW5lcmljIEZpbGUgIzI8L3RpdGxlPiYjeGE7CQk8ZyBpZD0ic2hhcGU0NTMyLTIiIHRyYW5zZm9ybT0idHJhbnNsYXRlKDAsLTE0LjUxMTMpIj4mI3hhOwkJCTx0aXRsZSBpZD0idGl0bGU0NzY5NCI+U2hlZXQuNDUzMjwvdGl0bGU+JiN4YTsJCQk8cGF0aCBpZD0icGF0aDQ3Njk2IiBpbmtzY2FwZTpjb25uZWN0b3ItY3VydmF0dXJlPSIwIiBzdHlsZT0iZmlsbDojRDhEOEQ4OyIgZD0iTTIzLjA3LDUzLjk5TDE5Ljc5LDE2LjlIMHYzMy44NkwyMy4wNyw1My45OXoiLz4mI3hhOwkJPC9nPiYjeGE7CQk8ZyBpZD0ic2hhcGU0NTMzLTQiIHRyYW5zZm9ybT0idHJhbnNsYXRlKDE5Ljc5MDIsLTE0LjUxMTMpIj4mI3hhOwkJCTx0aXRsZSBpZD0idGl0bGU0NzY5OSI+U2hlZXQuNDUzMzwvdGl0bGU+JiN4YTsJCQk8cGF0aCBpZD0icGF0aDQ3NzAxIiBpbmtzY2FwZTpjb25uZWN0b3ItY3VydmF0dXJlPSIwIiBzdHlsZT0iZmlsbDojRThFNkU2OyIgZD0iTTE5Ljg3LDUwLjc2VjI4LjE5bC04LjA2LTMuMjNMOC41OSwxNi45SDAgICAgIGwwLjA1LDM3LjA5TDE5Ljg3LDUwLjc2eiIvPiYjeGE7CQk8L2c+JiN4YTsJCTxnIGlkPSJzaGFwZTQ1MzQtNiIgdHJhbnNmb3JtPSJ0cmFuc2xhdGUoMjguMzc3NSwtNDAuMzA5MikiPiYjeGE7CQkJPHRpdGxlIGlkPSJ0aXRsZTQ3NzA0Ij5TaGVldC40NTM0PC90aXRsZT4mI3hhOwkJCTxwYXRoIGlkPSJwYXRoNDc3MDYiIGlua3NjYXBlOmNvbm5lY3Rvci1jdXJ2YXR1cmU9IjAiIHN0eWxlPSJmaWxsOiNBNUE1QTU7IiBkPSJNMCw1My45OVY0Mi43bDExLjI5LDExLjI5SDB6Ii8+JiN4YTsJCTwvZz4mI3hhOwkJPGcgaWQ9InNoYXBlNDUzNS04Ij4mI3hhOwkJCTx0aXRsZSBpZD0idGl0bGU0NzcwOSI+U2hlZXQuNDUzNTwvdGl0bGU+JiN4YTsJCQk8cmVjdCBpZD0icmVjdDQ3NzExIiB5PSIzNi4yNSIgc3R5bGU9ImZpbGw6IzYxMDM1MzsiIHdpZHRoPSIzOS42NiIgaGVpZ2h0PSIxNy43NCIvPiYjeGE7CQk8L2c+JiN4YTsJPC9nPiYjeGE7PC9nPiYjeGE7PC9zdmc+;shadow=1;sketch=1;strokeWidth=2;fillColor=none;" vertex="1" parent="Nl4qXHyheukNvlqafIY5-27">
          <mxGeometry x="7.27000000000001" width="66.92" height="87" as="geometry" />
        </mxCell>
        <mxCell id="Nl4qXHyheukNvlqafIY5-29" value="&lt;font color=&quot;#ffffff&quot;&gt;SST 1&lt;/font&gt;" style="text;strokeColor=none;fillColor=none;html=1;fontSize=24;fontStyle=1;verticalAlign=middle;align=center;shadow=1;sketch=1;strokeWidth=2;" vertex="1" parent="Nl4qXHyheukNvlqafIY5-27">
          <mxGeometry y="58" width="83.46" height="30" as="geometry" />
        </mxCell>
        <mxCell id="Nl4qXHyheukNvlqafIY5-39" value="&lt;font style=&quot;font-size: 28px;&quot; color=&quot;#000000&quot;&gt;Level 1&lt;/font&gt;" style="text;strokeColor=none;fillColor=none;html=1;fontSize=24;fontStyle=1;verticalAlign=middle;align=center;shadow=1;sketch=1;strokeWidth=2;fontColor=#FFFFFF;" vertex="1" parent="1">
          <mxGeometry x="660" y="644" width="100" height="40" as="geometry" />
        </mxCell>
        <mxCell id="Nl4qXHyheukNvlqafIY5-40" value="" style="shape=curlyBracket;whiteSpace=wrap;html=1;rounded=1;shadow=1;sketch=1;strokeWidth=2;fontSize=28;fontColor=#000000;fillColor=default;rotation=90;" vertex="1" parent="1">
          <mxGeometry x="392.98" y="-109.3" width="20" height="384" as="geometry" />
        </mxCell>
        <mxCell id="Nl4qXHyheukNvlqafIY5-41" value="&lt;b&gt;Total Size = 100MB&lt;/b&gt;" style="text;html=1;align=center;verticalAlign=middle;resizable=0;points=[];autosize=1;strokeColor=none;fillColor=none;fontSize=28;fontColor=#000000;" vertex="1" parent="1">
          <mxGeometry x="267.98" y="20" width="270" height="50" as="geometry" />
        </mxCell>
        <mxCell id="Nl4qXHyheukNvlqafIY5-44" style="edgeStyle=none;rounded=0;orthogonalLoop=1;jettySize=auto;html=1;strokeWidth=3;fontSize=28;fontColor=#000000;" edge="1" parent="1" source="Nl4qXHyheukNvlqafIY5-43" target="Nl4qXHyheukNvlqafIY5-29">
          <mxGeometry relative="1" as="geometry" />
        </mxCell>
        <mxCell id="Nl4qXHyheukNvlqafIY5-43" value="&lt;b&gt;Compaction New SST Size 70MB&lt;/b&gt;" style="text;html=1;align=center;verticalAlign=middle;resizable=0;points=[];autosize=1;strokeColor=none;fillColor=none;fontSize=28;fontColor=#000000;" vertex="1" parent="1">
          <mxGeometry x="106.19" y="800" width="460" height="50" as="geometry" />
        </mxCell>
      </root>
    </mxGraphModel>
  </diagram>
</mxfile>
